<svg width="162" height="82" viewBox="0 0 162 82" fill="none" xmlns="http://www.w3.org/2000/svg">
<g clip-path="url(#clip0_120_38)">
<path d="M33.1297 38.1244C33.1384 39.0125 33.0919 39.9388 32.9901 40.9024L11.4769 41.1128C11.644 43.0366 12.27 44.5113 13.3549 45.5374C14.4765 46.5261 15.8341 47.0125 17.4277 46.9973C19.7995 46.9739 21.4388 45.9582 22.3457 43.9499L32.4631 43.8509C31.9642 45.8923 31.0371 47.734 29.6819 49.3766C28.3637 51.0183 26.69 52.3121 24.6608 53.2575C22.6316 54.2029 20.357 54.6879 17.8369 54.7127C14.798 54.7426 12.0862 54.1209 9.70171 52.8484C7.31718 51.5759 5.44602 49.7432 4.0883 47.3496C2.73054 44.9564 2.03589 42.1493 2.00432 38.9283C1.97274 35.7078 2.59369 32.8877 3.86719 30.4687C5.17778 28.0492 7.0126 26.18 9.37176 24.8611C11.7309 23.5421 14.4484 22.8676 17.5244 22.8375C20.5263 22.8082 23.2007 23.4114 25.5478 24.6473C27.895 25.8832 29.7285 27.661 31.0484 29.9806C32.4055 32.2999 33.0992 35.0144 33.1297 38.1244ZM23.377 35.7203C23.361 34.0915 22.7924 32.8012 21.6712 31.8495C20.55 30.8978 19.1555 30.4302 17.4878 30.4465C15.8942 30.4621 14.5461 30.9381 13.4433 31.8745C12.3777 32.8105 11.7235 34.1313 11.4808 35.8366L23.377 35.7203Z" fill="#121212"/>
<path d="M33.1297 38.1244C33.1384 39.0125 33.0919 39.9388 32.9901 40.9024L11.4769 41.1128C11.644 43.0366 12.27 44.5113 13.3549 45.5374C14.4765 46.5261 15.8341 47.0125 17.4277 46.9973C19.7995 46.9739 21.4388 45.9582 22.3457 43.9499L32.4631 43.8509C31.9642 45.8923 31.0371 47.734 29.6819 49.3766C28.3637 51.0183 26.69 52.3121 24.6608 53.2575C22.6316 54.2029 20.357 54.6879 17.8369 54.7127C14.798 54.7426 12.0862 54.1209 9.70171 52.8484C7.31718 51.5759 5.44602 49.7432 4.0883 47.3496C2.73054 44.9564 2.03589 42.1493 2.00432 38.9283C1.97274 35.7078 2.59369 32.8877 3.86719 30.4687C5.17778 28.0492 7.0126 26.18 9.37176 24.8611C11.7309 23.5421 14.4484 22.8676 17.5244 22.8375C20.5263 22.8082 23.2007 23.4114 25.5478 24.6473C27.895 25.8832 29.7285 27.661 31.0484 29.9806C32.4055 32.2999 33.0992 35.0144 33.1297 38.1244ZM23.377 35.7203C23.361 34.0915 22.7924 32.8012 21.6712 31.8495C20.55 30.8978 19.1555 30.4302 17.4878 30.4465C15.8942 30.4621 14.5461 30.9381 13.4433 31.8745C12.3777 32.8105 11.7235 34.1313 11.4808 35.8366L23.377 35.7203Z" fill="#121212"/>
<path d="M33.1297 38.1244C33.1384 39.0125 33.0919 39.9388 32.9901 40.9024L11.4769 41.1128C11.644 43.0366 12.27 44.5113 13.3549 45.5374C14.4765 46.5261 15.8341 47.0125 17.4277 46.9973C19.7995 46.9739 21.4388 45.9582 22.3457 43.9499L32.4631 43.8509C31.9642 45.8923 31.0371 47.734 29.6819 49.3766C28.3637 51.0183 26.69 52.3121 24.6608 53.2575C22.6316 54.2029 20.357 54.6879 17.8369 54.7127C14.798 54.7426 12.0862 54.1209 9.70171 52.8484C7.31718 51.5759 5.44602 49.7432 4.0883 47.3496C2.73054 44.9564 2.03589 42.1493 2.00432 38.9283C1.97274 35.7078 2.59369 32.8877 3.86719 30.4687C5.17778 28.0492 7.0126 26.18 9.37176 24.8611C11.7309 23.5421 14.4484 22.8676 17.5244 22.8375C20.5263 22.8082 23.2007 23.4114 25.5478 24.6473C27.895 25.8832 29.7285 27.661 31.0484 29.9806C32.4055 32.2999 33.0992 35.0144 33.1297 38.1244ZM23.377 35.7203C23.361 34.0915 22.7924 32.8012 21.6712 31.8495C20.55 30.8978 19.1555 30.4302 17.4878 30.4465C15.8942 30.4621 14.5461 30.9381 13.4433 31.8745C12.3777 32.8105 11.7235 34.1313 11.4808 35.8366L23.377 35.7203Z" fill="#121212"/>
<path d="M46.7307 39.6303C46.6994 36.4466 47.2654 33.6458 48.4276 31.2278C49.6267 28.8095 51.258 26.9423 53.3206 25.6263C55.3832 24.3102 57.6933 23.6397 60.2501 23.6147C62.2884 23.5947 64.1455 24.0023 65.8215 24.8375C67.5349 25.6723 68.8804 26.8069 69.8581 28.2413L69.7169 13.8586L79.2228 13.7656L79.6258 54.8593L70.12 54.9522L70.0761 50.5094C69.2014 51.9993 67.9345 53.1963 66.2754 54.1009C64.6537 55.0055 62.7492 55.4685 60.5628 55.4897C58.0056 55.5149 55.6828 54.8897 53.5951 53.6141C51.5065 52.3017 49.8391 50.4482 48.5926 48.0537C47.3826 45.6219 46.762 42.8144 46.7307 39.6303ZM69.9679 39.4589C69.9445 37.0892 69.2591 35.2263 67.9119 33.8696C66.6011 32.5125 65.0011 31.8432 63.111 31.8617C61.2208 31.8802 59.6156 32.5809 58.2948 33.9637C57.0106 35.3091 56.3804 37.1664 56.4034 39.5357C56.4268 41.905 57.0939 43.7871 58.4047 45.1811C59.7524 46.5378 61.3711 47.2068 63.2612 47.1886C65.1509 47.17 66.7379 46.4693 68.0218 45.087C69.3425 43.7043 69.991 41.8282 69.9679 39.4589ZM116.829 23.5055L117.133 54.4923L107.627 54.5851L107.585 50.3649C106.636 51.7442 105.331 52.8674 103.671 53.7352C102.049 54.5656 100.237 54.9908 98.2354 55.0103C95.8636 55.0333 93.7646 54.5356 91.9387 53.5169C90.112 52.4609 88.6887 50.9385 87.6685 48.9492C86.6483 46.9595 86.1249 44.6136 86.0985 41.9111L85.9208 23.8078L95.3711 23.7154L95.5361 40.5414C95.5566 42.6148 96.1099 44.2197 97.1957 45.3569C98.2819 46.494 99.7325 47.0537 101.548 47.0359C103.402 47.0181 104.86 46.4298 105.923 45.2718C106.987 44.1134 107.509 42.4977 107.488 40.4247L107.323 23.5985L116.829 23.5055ZM121.919 39.006C121.889 35.9334 122.492 33.1876 123.729 30.7689C125.002 28.3498 126.707 26.4634 128.844 25.1096C131.017 23.7184 133.382 23.0103 135.939 22.9853C137.903 22.9661 139.667 23.3005 141.231 23.9887C142.794 24.6399 144.063 25.5716 145.038 26.7839L145.003 23.2298L154.509 23.1368L154.958 68.8952L145.452 68.988L145.269 50.3294C144.207 51.6357 142.902 52.6852 141.353 53.4779C139.841 54.2701 138.103 54.6758 136.139 54.6949C133.619 54.7196 131.277 54.0762 129.115 52.7642C126.952 51.4526 125.211 49.6 123.89 47.2064C122.606 44.8124 121.95 42.0786 121.919 39.006ZM145.155 38.7231C145.139 37.0571 144.792 35.6722 144.114 34.5681C143.473 33.4266 142.63 32.5833 141.587 32.0381C140.544 31.4559 139.448 31.1705 138.299 31.1817C137.187 31.1926 136.115 31.4992 135.083 32.1017C134.051 32.6672 133.207 33.527 132.551 34.6812C131.895 35.8353 131.576 37.2454 131.592 38.9114C131.608 40.5774 131.956 41.981 132.634 43.122C133.312 44.2262 134.172 45.0692 135.216 45.6514C136.259 46.1968 137.337 46.4636 138.448 46.4528C139.56 46.4419 140.633 46.1539 141.664 45.5885C142.733 44.9855 143.577 44.1073 144.196 42.9533C144.852 41.7992 145.172 40.3891 145.155 38.7231Z" fill="#121212"/>
<path d="M46.7385 39.7791C46.7073 36.595 47.2727 33.7942 48.435 31.3762C49.6346 28.9579 51.2654 27.0907 53.328 25.7746C55.3905 24.4586 57.7007 23.7881 60.2579 23.763C62.2962 23.7431 64.1533 24.1507 65.8293 24.9859C67.5423 25.8207 68.8878 26.9553 69.8654 28.3897L69.7243 14.007L79.2302 13.914L79.6332 55.0077L70.1273 55.1005L70.0839 50.6578C69.2088 52.1476 67.9419 53.3447 66.2828 54.2493C64.661 55.1539 62.757 55.6168 60.5702 55.6381C58.013 55.6632 55.6907 55.038 53.6025 53.7625C51.5138 52.4501 49.8465 50.5966 48.6 48.2021C47.39 45.7707 46.7694 42.9628 46.7385 39.7791ZM69.9753 39.6073C69.9523 37.238 69.267 35.3747 67.9193 34.018C66.6085 32.6609 65.0085 31.9916 63.1183 32.0101C61.2282 32.0286 59.623 32.7292 58.3022 34.1121C57.0184 35.4575 56.3877 37.3148 56.4112 39.6841C56.4342 42.0538 57.1013 43.9355 58.4121 45.3295C59.7598 46.6862 61.3785 47.3552 63.2686 47.337C65.1588 47.3183 66.7457 46.6181 68.0292 45.2354C69.3499 43.8526 69.9988 41.9766 69.9753 39.6073ZM116.836 23.6539L117.14 54.6406L107.634 54.7335L107.593 50.5133C106.643 51.8925 105.338 53.0158 103.679 53.8835C102.056 54.7139 100.244 55.1391 98.2428 55.1587C95.871 55.1817 93.7724 54.684 91.9461 53.6653C90.1198 52.6093 88.6961 51.0869 87.6759 49.0976C86.6557 47.1079 86.1323 44.762 86.1058 42.0595L85.9286 23.9562L95.3789 23.8638L95.544 40.6898C95.5639 42.7632 96.1173 44.3681 97.2031 45.5052C98.2893 46.6424 99.7403 47.2021 101.556 47.1843C103.409 47.1665 104.867 46.5782 105.931 45.4202C106.994 44.2618 107.516 42.6461 107.495 40.5731L107.33 23.7468L116.836 23.6539Z" fill="#121212"/>
<path d="M36.0469 40.0238H43.8674" stroke="#121212" stroke-width="16" stroke-linejoin="round"/>
<path d="M145.062 22.9947V69.8519" stroke="#121212" stroke-width="3" stroke-linejoin="round"/>
<path d="M145.062 22.9947V69.8519" stroke="#C9C9C9" stroke-width="3" stroke-linejoin="round"/>
<path d="M70.3594 12.1482V60.7408" stroke="#C9C9C9" stroke-width="3" stroke-linejoin="round"/>
<path d="M-2.60596 40.7831H35.182" stroke="#C9C9C9" stroke-width="3" stroke-linejoin="round"/>
<path d="M107.71 14.7513L108.145 60.3069" stroke="#C9C9C9" stroke-width="3" stroke-linejoin="round"/>
</g>
<defs>
<clipPath id="clip0_120_38">
<rect width="162" height="82" fill="white"/>
</clipPath>
</defs>
</svg>
