<svg width="373" height="189" viewBox="0 0 373 189" fill="none" xmlns="http://www.w3.org/2000/svg">
<path d="M82.2801 105.871C82.3002 107.919 82.1931 110.054 81.9588 112.275L32.4252 112.76C32.81 117.194 34.2513 120.593 36.7493 122.958C39.3317 125.237 42.4575 126.358 46.1267 126.322C51.5877 126.269 55.3623 123.928 57.4504 119.299L80.7453 119.071C79.5967 123.776 77.4621 128.021 74.3417 131.806C71.3066 135.591 67.453 138.573 62.7808 140.752C58.1086 142.931 52.8713 144.049 47.0689 144.106C40.0719 144.175 33.8282 142.742 28.3379 139.809C22.8476 136.876 18.5393 132.652 15.4132 127.135C12.287 121.619 10.6876 115.149 10.6149 107.725C10.5422 100.302 11.9719 93.8021 14.9041 88.2264C17.9217 82.6499 22.1463 78.3417 27.5782 75.3017C33.01 72.2617 39.2671 70.707 46.3494 70.6376C53.2611 70.5699 59.419 71.9604 64.8231 74.8089C70.2273 77.6575 74.4489 81.755 77.4881 87.1015C80.6126 92.4472 82.2099 98.7038 82.2801 105.871ZM59.8248 100.331C59.788 96.5766 58.4789 93.6026 55.8973 91.4091C53.3157 89.2156 50.1049 88.1377 46.2651 88.1753C42.596 88.2112 39.4919 89.3083 36.9529 91.4666C34.4993 93.6241 32.993 96.6683 32.4341 100.599L59.8248 100.331Z" fill="#F5F5F5"/>
<path d="M82.2801 105.871C82.3002 107.919 82.1931 110.054 81.9588 112.275L32.4252 112.76C32.81 117.194 34.2513 120.593 36.7493 122.958C39.3317 125.237 42.4575 126.358 46.1267 126.322C51.5877 126.269 55.3623 123.928 57.4504 119.299L80.7453 119.071C79.5967 123.776 77.4621 128.021 74.3417 131.806C71.3066 135.591 67.453 138.573 62.7808 140.752C58.1086 142.931 52.8713 144.049 47.0689 144.106C40.0719 144.175 33.8282 142.742 28.3379 139.809C22.8476 136.876 18.5393 132.652 15.4132 127.135C12.287 121.619 10.6876 115.149 10.6149 107.725C10.5422 100.302 11.9719 93.8021 14.9041 88.2264C17.9217 82.6499 22.1463 78.3417 27.5782 75.3017C33.01 72.2617 39.2671 70.707 46.3494 70.6376C53.2611 70.5699 59.419 71.9604 64.8231 74.8089C70.2273 77.6575 74.4489 81.755 77.4881 87.1015C80.6126 92.4472 82.2099 98.7038 82.2801 105.871ZM59.8248 100.331C59.788 96.5766 58.4789 93.6026 55.8973 91.4091C53.3157 89.2156 50.1049 88.1377 46.2651 88.1753C42.596 88.2112 39.4919 89.3083 36.9529 91.4666C34.4993 93.6241 32.993 96.6683 32.4341 100.599L59.8248 100.331Z" fill="#F5F5F5"/>
<path d="M82.2801 105.871C82.3002 107.919 82.1931 110.054 81.9588 112.275L32.4252 112.76C32.81 117.194 34.2513 120.593 36.7493 122.958C39.3317 125.237 42.4575 126.358 46.1267 126.322C51.5877 126.269 55.3623 123.928 57.4504 119.299L80.7453 119.071C79.5967 123.776 77.4621 128.021 74.3417 131.806C71.3066 135.591 67.453 138.573 62.7808 140.752C58.1086 142.931 52.8713 144.049 47.0689 144.106C40.0719 144.175 33.8282 142.742 28.3379 139.809C22.8476 136.876 18.5393 132.652 15.4132 127.135C12.287 121.619 10.6876 115.149 10.6149 107.725C10.5422 100.302 11.9719 93.8021 14.9041 88.2264C17.9217 82.6499 22.1463 78.3417 27.5782 75.3017C33.01 72.2617 39.2671 70.707 46.3494 70.6376C53.2611 70.5699 59.419 71.9604 64.8231 74.8089C70.2273 77.6575 74.4489 81.755 77.4881 87.1015C80.6126 92.4472 82.2099 98.7038 82.2801 105.871ZM59.8248 100.331C59.788 96.5766 58.4789 93.6026 55.8973 91.4091C53.3157 89.2156 50.1049 88.1377 46.2651 88.1753C42.596 88.2112 39.4919 89.3083 36.9529 91.4666C34.4993 93.6241 32.993 96.6683 32.4341 100.599L59.8248 100.331Z" fill="#F5F5F5"/>
<path d="M113.596 109.343C113.524 102.005 114.827 95.5494 117.503 89.9763C120.264 84.4023 124.02 80.0986 128.769 77.0653C133.518 74.032 138.837 72.4865 144.724 72.4288C149.417 72.3829 153.693 73.3224 157.552 75.2474C161.497 77.1715 164.595 79.7866 166.846 83.0927L166.521 49.9423L188.408 49.728L189.336 144.443L167.449 144.658L167.348 134.418C165.334 137.852 162.417 140.611 158.597 142.696C154.863 144.781 150.478 145.848 145.444 145.897C139.556 145.955 134.208 144.514 129.401 141.574C124.592 138.549 120.753 134.277 117.883 128.758C115.097 123.153 113.668 116.682 113.596 109.343ZM167.099 108.948C167.045 103.486 165.467 99.1923 162.365 96.0652C159.347 92.9373 155.663 91.3946 151.311 91.4373C146.959 91.4799 143.263 93.0948 140.222 96.2821C137.265 99.3832 135.814 103.664 135.867 109.125C135.921 114.586 137.457 118.924 140.475 122.137C143.578 125.264 147.305 126.806 151.657 126.764C156.008 126.721 159.662 125.106 162.618 121.92C165.659 118.733 167.152 114.409 167.099 108.948ZM274.995 72.1772L275.694 143.598L253.808 143.812L253.712 134.085C251.525 137.263 248.521 139.853 244.7 141.853C240.964 143.767 236.792 144.747 232.184 144.792C226.723 144.845 221.89 143.698 217.686 141.35C213.48 138.916 210.203 135.407 207.854 130.821C205.505 126.236 204.3 120.829 204.239 114.6L203.83 72.8741L225.589 72.661L225.969 111.443C226.016 116.222 227.29 119.921 229.79 122.542C232.291 125.163 235.631 126.453 239.812 126.412C244.079 126.371 247.436 125.015 249.885 122.345C252.334 119.676 253.535 115.952 253.488 111.174L253.108 72.3915L274.995 72.1772ZM286.715 107.904C286.646 100.822 288.035 94.4932 290.882 88.9184C293.814 83.3428 297.74 78.9948 302.659 75.8745C307.662 72.668 313.108 71.0359 318.995 70.9782C323.518 70.934 327.579 71.7049 331.179 73.291C334.778 74.7919 337.7 76.9394 339.946 79.7335L339.866 71.5419L361.753 71.3276L362.786 176.795L340.899 177.009L340.478 134.003C338.032 137.014 335.027 139.433 331.46 141.26C327.979 143.086 323.978 144.021 319.455 144.065C313.653 144.122 308.262 142.639 303.283 139.615C298.304 136.592 294.294 132.322 291.253 126.805C288.297 121.287 286.785 114.986 286.715 107.904ZM340.216 107.252C340.178 103.412 339.379 100.22 337.818 97.6752C336.341 95.0442 334.402 93.1004 332 91.8439C329.598 90.502 327.074 89.844 324.429 89.8699C321.869 89.895 319.401 90.6019 317.025 91.9905C314.648 93.2939 312.705 95.2757 311.195 97.9359C309.685 100.596 308.949 103.846 308.986 107.686C309.024 111.526 309.824 114.761 311.386 117.391C312.947 119.936 314.928 121.879 317.331 123.221C319.733 124.478 322.214 125.093 324.773 125.068C327.333 125.043 329.802 124.379 332.178 123.076C334.639 121.686 336.582 119.662 338.007 117.002C339.517 114.342 340.253 111.092 340.216 107.252Z" fill="#F5F5F5"/>
<path d="M113.614 109.685C113.542 102.347 114.844 95.8914 117.52 90.3183C120.282 84.7443 124.037 80.4407 128.786 77.4074C133.535 74.374 138.854 72.8285 144.742 72.7709C149.435 72.7249 153.711 73.6644 157.57 75.5894C161.514 77.5135 164.612 80.1287 166.863 83.4348L166.538 50.2844L188.425 50.07L189.353 144.785L167.466 145L167.366 134.76C165.351 138.194 162.434 140.953 158.614 143.038C154.88 145.123 150.496 146.19 145.461 146.239C139.573 146.297 134.226 144.856 129.418 141.916C124.609 138.891 120.77 134.619 117.9 129.1C115.114 123.495 113.685 117.024 113.614 109.685ZM167.116 109.29C167.063 103.828 165.485 99.5344 162.382 96.4073C159.364 93.2793 155.68 91.7367 151.328 91.7793C146.976 91.8219 143.28 93.4369 140.239 96.6241C137.283 99.7252 135.831 104.006 135.885 109.467C135.938 114.928 137.474 119.266 140.492 122.479C143.595 125.606 147.322 127.148 151.674 127.106C156.026 127.063 159.68 125.448 162.635 122.262C165.676 119.075 167.17 114.751 167.116 109.29ZM275.012 72.5192L275.712 143.94L253.825 144.154L253.73 134.427C251.542 137.606 248.538 140.195 244.717 142.195C240.981 144.109 236.809 145.089 232.201 145.134C226.74 145.187 221.908 144.04 217.703 141.692C213.498 139.258 210.22 135.749 207.871 131.163C205.522 126.578 204.317 121.171 204.256 114.942L203.848 73.2161L225.607 73.003L225.987 111.785C226.033 116.564 227.307 120.263 229.807 122.884C232.308 125.505 235.649 126.795 239.83 126.754C244.096 126.713 247.454 125.357 249.902 122.688C252.351 120.018 253.552 116.294 253.505 111.516L253.125 72.7335L275.012 72.5192Z" fill="#F5F5F5"/>
<path d="M88.9965 110.25H107.003" stroke="#F5F5F5" stroke-width="16" stroke-linejoin="round"/>
<path d="M340 70.9999V179" stroke="#F5F5F5" stroke-width="3" stroke-linejoin="round"/>
<path d="M340 70.9999V179" stroke="#2E1065" stroke-width="3" stroke-linejoin="round"/>
<path d="M168 50V158" stroke="#2E1065" stroke-width="3" stroke-linejoin="round"/>
<path d="M0 112L87.0057 112" stroke="#2E1065" stroke-width="3" stroke-linejoin="round"/>
<path d="M254 52L255 157" stroke="#2E1065" stroke-width="3" stroke-linejoin="round"/>
</svg>
